<?xml version="1.0" encoding="utf-8" ?><svg xmlns="http://www.w3.org/2000/svg" xmlns:xlink="http://www.w3.org/1999/xlink" width="1024" height="1024" viewBox="0 0 1024 1024"><defs><linearGradient id="gradient_0" gradientUnits="userSpaceOnUse" x1="390.0708" y1="316.05234" x2="657.07086" y2="781.57739"><stop offset="0" stop-color="#FEBF9D"/><stop offset="1" stop-color="#C691CB"/></linearGradient></defs><path fill="url(#gradient_0)" d="M226.359 411.423C233.589 394.983 241.263 379.154 250.929 363.998C322.587 251.643 460.838 177.238 593.751 215.11C594.492 215.325 598.007 216.395 598.535 216.443L600.87 217.32C679.4 243.254 738.389 304.497 774.247 377.504C818.413 467.428 842.339 581.215 786.444 671.616C779.602 682.682 770.862 692.885 762.28 702.611C733.395 735.822 698.845 761.2 659.457 780.853C622.316 799.385 580.36 812.642 539.053 817.889C525.012 819.672 512.069 819.287 498.157 819.532C465.576 820.106 436.228 815.564 405.326 805.174C381.868 797.286 353.23 784.469 332.843 770.06C293.97 742.584 257.497 699.268 236.463 656.782C200.908 586.495 194.781 504.949 219.434 430.138C221.617 423.854 223.925 417.615 226.359 411.423Z"/><defs><linearGradient id="gradient_1" gradientUnits="userSpaceOnUse" x1="647.11542" y1="708.6236" x2="401.23605" y2="354.23923"><stop offset="0" stop-color="#F26171"/><stop offset="1" stop-color="#E38C6F"/></linearGradient></defs><path fill="url(#gradient_1)" d="M583.331 288.337C584.907 288.585 589.407 289.32 590.804 289.258C597.423 288.964 604.641 287.206 611.25 288.709C615.512 289.679 621.674 292.247 625.958 293.906C656.283 305.74 682.682 325.841 702.156 351.927C704.439 355.044 707.061 360.388 709.232 362.927C721.902 377.745 730.635 394.033 737.918 412.004C739.948 417.011 743.227 422.454 745.018 427.67C749.239 443.072 754.036 461.399 755.727 477.214C758.345 501.688 757.575 527.686 753.441 551.917C745.932 591.847 728.225 630.006 702.586 661.52C699.988 664.713 694.878 671.544 692.193 674.11C681.124 684.518 668.6 694.982 656.177 703.781C622.72 727.476 582.136 740.423 541.776 745.73C528.928 747.419 517.483 749.151 504.498 748.41C500.249 748.167 494.99 749.55 490.56 749.07C479.561 748.262 467.878 746.396 457.043 744.702C434.894 741.238 415.567 735.17 395.253 725.783C388.826 723.196 382.615 720.726 376.496 717.466C369.438 713.705 363.639 708.296 357.302 703.849C339.966 691.683 325.432 678.604 313.035 661.304C310.143 657.278 305.273 652.932 302.734 648.789C294.215 634.888 284.771 618.089 280.277 602.384C278.68 596.801 276.811 583.438 275.777 577.313C274.87 571.938 276.256 560.96 275.975 554.596C280.384 547.911 278.352 535.267 281.287 531.408C282.785 531.158 283.872 531.298 284.558 530.048C287.908 523.953 289.722 517.205 291.964 510.916C292.894 508.31 300.609 507.985 302.801 504.263L302.503 503.396L300.943 502.774L301.602 503.158L300.834 502.46L301.414 502.095C304.556 500.084 307.248 497.788 309.502 494.796C313.87 488.998 315.905 489.356 311.23 483.033C311.771 481.481 313.111 478.219 312.994 476.768C312.17 476.191 311.503 475.741 310.644 475.218C311.385 472.528 316.557 470.788 315.904 467.672C313.355 466.204 311.748 467.526 310.727 466.218C312.491 464.275 313.166 463.919 313.48 461.326C312.388 459.23 310.308 460.553 310.989 456.566C311.109 455.86 312.385 452.985 312.712 452.209C308.833 448.789 306.322 446.781 303.306 442.552L309.563 441.051C307.868 435.544 306.072 430.176 305.403 424.427C307.256 419.876 308.497 418.097 312.952 415.845C314.686 413.107 315.878 404.268 316.51 400.686C317.511 394.219 320.945 388.589 323.51 382.679C325.944 377.072 327.89 375.227 332.788 371.895C332.819 371.674 332.85 371.452 332.88 371.231L333.032 370.256C334.222 362.377 352.572 345.866 358.99 340.116C363.521 336.057 367.794 335.722 372.787 329.584C379.24 324.064 383.498 317.335 389.441 311.9C392.831 308.801 405.726 303.174 410.458 301.876C412.827 301.225 418.93 300.873 421.702 300.754C435.209 300.176 445.651 294.12 457.729 288.966C459.978 290.001 461.492 290.815 463.931 290.857C467.548 291.655 471.68 292.094 475.106 293.104C479.757 294.476 481.87 300.096 487.14 296.906C489.079 294.702 489.526 294.409 492.012 292.814C493.557 293.924 495.14 294.992 496.529 296.287L501.424 292.3C506.606 297.762 505.69 299.394 513.248 296.735C515.84 303.847 517.23 312.821 519.641 318.412C520.522 314.086 519.526 303.355 522.259 300.612L523.17 300.623C524.316 306.465 523.802 308.883 522.709 314.693C524.692 312.424 527.496 308.961 530.244 307.91C532.465 308.369 532.206 309.465 532.774 309.593C534.996 310.094 535.987 308.245 538.65 308.806C539.023 310.173 538.927 310.608 538.898 312.018L539.509 312.682C543.994 312.439 555.052 304.567 557.328 306.63C557.463 306.753 557.588 306.885 557.718 307.012C560.154 306.179 561.964 300.776 562.959 298.379C565.025 298.51 567.357 298.716 569.4 298.78C574.352 294.678 575.271 293.862 581.352 291.761C581.544 291.427 583.213 288.481 583.331 288.337Z"/><path fill="#F8CC8E" d="M457.729 288.966C459.978 290.001 461.492 290.815 463.931 290.857C467.548 291.655 471.68 292.094 475.106 293.104C479.757 294.476 481.87 300.096 487.14 296.906C493.348 302.514 497.215 309.666 497.8 318.023C498.125 326.446 494.438 337.764 488.35 343.655C481.875 349.92 475.604 358.435 468.896 364.132C453.025 377.613 437.858 392.114 421.129 404.512C414.42 409.484 406.54 413.222 399.546 417.799C395.892 420.186 392.411 423.922 388.271 426.515C385.038 428.541 376.542 429.23 375.505 430.076C372.857 432.239 367.218 438.73 362.913 439.715C355.943 441.308 345.503 442.474 338.379 442.955C331.486 443.421 322.666 442.252 317.7 437.235C315.491 435.003 313.854 433.021 312.324 430.186C312.252 424.064 312.461 421.788 312.952 415.845C314.686 413.107 315.878 404.268 316.51 400.686C317.511 394.219 320.945 388.589 323.51 382.679C325.944 377.072 327.89 375.227 332.788 371.895C332.819 371.674 332.85 371.452 332.88 371.231L333.032 370.256C334.222 362.377 352.572 345.866 358.99 340.116C363.521 336.057 367.794 335.722 372.787 329.584C379.24 324.064 383.498 317.335 389.441 311.9C392.831 308.801 405.726 303.174 410.458 301.876C412.827 301.225 418.93 300.873 421.702 300.754C435.209 300.176 445.651 294.12 457.729 288.966Z"/><path fill="#B0354C" d="M514.995 455.845C516.664 456.291 518.766 455.979 520.754 456.255C524.99 456.844 532.611 458.104 536.492 459.671C547.733 464.209 560.928 473.576 566.022 485.038C572.909 500.536 576.36 514.748 570.768 531.364C568.835 537.106 565.817 538.601 564.266 544.577C563.474 547.624 557.629 553.085 555.015 555.415C544.685 564.625 530.686 573.003 516.327 572.129C513.781 573.404 510.122 572.723 507.34 572.777C497.757 572.963 489.229 569.96 481.291 564.672C467.527 555.496 457.966 541.233 454.706 525.015C448.321 491.685 466.683 466.835 496.852 457.53C503.376 455.518 508.812 457.058 514.995 455.845Z"/><path fill="#FAC39C" d="M226.359 411.423C233.589 394.983 241.263 379.154 250.929 363.998C322.587 251.643 460.838 177.238 593.751 215.11C594.697 216.966 594.718 216.136 594.435 217.762C593.074 218.761 592.643 218.683 590.985 218.858L590.405 218.141C589.627 217.195 589.412 217.038 588.396 216.289C586.622 216.565 586.994 216.729 585.415 218.355C587.156 219.12 592.997 220.601 593.346 221.464C591.297 224.173 583.564 221.686 580.721 220.774L579.951 221.1C581.37 223.508 592.756 226.505 590.556 231.884C588.823 236.122 577.434 236.579 573.669 237.15C571.921 237.415 567.072 242.094 564.837 242.223L563.401 241.415C557.469 243.924 552.517 245.95 546.139 246.567C545.582 246.621 540.94 249.158 539.978 249.548C534.535 251.751 526.928 255.755 521.28 256.53L520.826 257.255C521.737 258.779 522.381 259.722 523.43 261.157C522.54 262.172 522.358 262.22 521.217 262.983L519.983 262.694C519.838 261.637 519.967 260.616 519.642 259.693L520.038 259.194C515.987 259.224 514.061 267.637 512.654 268.708L511.21 268.612C510.612 269.585 509.991 270.543 509.348 271.487L508.751 271.256C508.304 269.649 507.879 267.252 506.773 266.153C502.596 266.953 505.769 274.011 501.109 275.307C495.381 276.9 485.174 274.817 481.487 279.983C480.349 281.578 479.023 286.28 478.065 286.929C476.751 285.962 476.584 285.678 474.878 285.603C472.764 287.432 470.491 290.522 468.71 290.149C466.565 289.701 465.894 289.448 463.931 290.857C461.492 290.815 459.978 290.001 457.729 288.966C445.651 294.12 435.209 300.176 421.702 300.754C418.93 300.873 412.827 301.225 410.458 301.876C405.726 303.174 392.831 308.801 389.441 311.9C383.498 317.335 379.24 324.064 372.787 329.584L371.707 329.384C366.291 334.286 362.145 332.484 357.784 335.307C353.708 337.946 348.075 344.474 343.908 348.028L342.105 346.836C339.462 348.127 338.784 352.55 336.716 354.721C334.855 356.674 328.276 358.871 325.588 360.086C325.117 360.299 323.765 359.778 323.249 359.604C320.95 360.367 319.659 362.183 317.758 364.031C310.536 371.051 304.11 369.915 300.291 380.838C299.951 381.81 291.536 389.429 290.414 391.086C286.413 395.203 279.63 397.165 275.868 401.342L275.335 401.353C273.791 401.396 273.271 401.299 271.88 402.005C269.143 405.154 267.45 408.102 265.27 410.897C263.766 412.825 260.921 411.169 257.836 414.915C255.018 414.846 251.204 414.856 248.462 414.623L247.252 413.311L246.657 413.386C246.17 414.589 246.25 414.528 246.539 415.816C242.452 412.664 246.363 409.231 246.598 405.095C248.312 403.898 251.302 402.187 252.038 400.425L251.897 399.692C251.271 400.036 250.745 400.33 250.012 400.447C248.068 400.758 247.23 403.523 245.467 403.763C241.767 404.166 238.685 406.01 236.542 409.057C234.251 412.315 235.904 412.672 232.119 414.806L230.635 417.663L230.242 417.729C230.485 413.845 232.47 409.888 232.396 407.272L231.689 407.028C229.334 409.469 229.993 411.966 227.832 413.248C226.862 412.471 226.818 412.552 226.359 411.423Z"/><path fill="#FAC39C" d="M598.535 216.443L600.87 217.32C599.228 219.271 599.919 218.95 597.333 219.034L596.735 218.394C597.198 217.316 597.507 217.303 598.535 216.443Z"/></svg>