<svg xmlns="http://www.w3.org/2000/svg" width="1024" height="1024" viewBox="0 0 1024 1024"><defs><linearGradient id="a" x1="375.399" x2="635.903" y1="245.245" y2="790.888" gradientUnits="userSpaceOnUse"><stop offset="0" stop-color="#fcc699"/><stop offset="1" stop-color="#eb90bb"/></linearGradient></defs><path fill="url(#a)" d="M508.782 205.199c3.798-.361 9.83-.201 13.801-.274 68.429-1.261 135.456 29.558 183.911 77.423a321 321 0 0 1 38.358 45.082c42.362 60.243 74.89 149.897 74.674 223.495-.317 46.134-12.029 92.028-39.046 129.926-7.247 10.165-15.411 18.196-23.45 27.435-13.695 15.739-27.907 28.317-44.761 40.641a378.55 378.55 0 0 1-140.714 63.4c-17.748 4.055-36.176 7.18-54.43 7.232-15.812.284-37.841.546-53.276-1.011-46.806-4.72-108.403-28.467-144.875-58.59-64.93-54.509-104.093-124.664-112.902-209.453-14.866-143.087 81.146-270.824 209.768-324.573 29.541-12.344 61.033-17.965 92.942-20.733"/><defs><linearGradient id="b" x1="651.74" x2="396.659" y1="707.517" y2="353.975" gradientUnits="userSpaceOnUse"><stop offset="0" stop-color="#fb6273"/><stop offset="1" stop-color="#fca779"/></linearGradient></defs><path fill="url(#b)" d="m486.546 296.898.354-.375c1.531-1.593 3.232-3.332 5.448-3.746 2.592.788 1.894 2.453 4.947 3.009l.411-.471c1.371-1.545 1.519-1.909 3.34-2.646 3.81.368 3.199 4.203 6.378 5.672.374-.063 5.686-1.891 6.018-2.105.767 3.5 2.344 6.58 3.154 9.829 1.255 5.035-.637 5.457 2.501 10.182l.901.048c1.28-3.556-2.464-13.881 3.235-16.124 1.03 2.326 1.142 10.61-.159 13.262l.853.224c2.011-1.825.064-.79.961-1.866 1.363-1.634 4.733-3.876 6.406-5.043l1.138.999.077 1.982c2.625-.135 4.441-1.732 6.581-1.339 1.304 2.237-.578 2.918.779 3.926l2.328-.813.513.428c3.936-1.474 10.761-6.029 13.561-6.594 1.138.839.655.288.967 2.207 3.502-.741 3.711-7.392 5.706-9.271 2.484-.179 3.99.29 5.571.564 1.067.185 5.396-4.442 6.452-4.972 1.624-.815 4.325-1.588 6.137-2.15 2.016-2.581.435-2.65 2.654-3.831 6.21 1.182 7.887 2.709 14.092.031.244-.105 12.691.037 13.43.36 4.019 1.755 14.892 5.352 18.932 6.922 8.351 3.245 16.498 8.291 24.543 12.182 17.29 11.797 32.452 26.092 45.593 42.371 5.748 7.121 9.455 16.392 16.711 22.681.913.791 2.645 4.832 3.616 5.957 7.61 10.592 12.361 22.436 17.576 34.344 1.785 4.682 5.014 9.792 6.592 14.479 3.849 11.436 5.717 23.023 8.257 34.793 3.973 17.809 4.889 38.43 3.594 56.574-.19 2.67.53 9.76.11 11.224-2.115 7.365-1.792 15.053-3.195 22.253-3.439 17.658-9.108 34.597-15.392 51.401-.884 2.348-3.07 3.441-3.54 5.998-2.191 8.609-7.985 15.535-12.08 22.887-6.714 12.056-14.029 22.471-23.059 32.912-1.878 2.004-3.523 5.502-5.403 7.372-9.454 9.398-20.435 17.647-30.781 25.87-34.928 27.76-81.311 42.602-125.229 47.836-10.957 1.306-21.228 3.147-32.37 1.854-3.735-.341-9.88 1.718-13.808 1.263-30.255-3.513-62.922-7.559-90.474-21.144-6.886-3.396-16.071-5.825-22.659-9.447-13.288-7.307-24.63-17.836-36.941-26.674-14.189-10.187-22.859-24.375-34.274-37.023-10.628-11.875-15.713-26.649-23.37-40.361-.722-1.293-2.51-8.959-2.938-9.472-3.218-3.857-2.244-15.451-3.244-17.571-5.27-11.183-1.313-18.194-2.054-29.294-.121-1.601-.941-1.601-.558-3.751l1.99-2.229c.602-3.263 1.948-19.791 3.738-21.804 1.201.221 1.166.182 2.225.771 1.715-3.083 3.101-7.514 5.623-10.708.537-.68 1.197-8.418 2.363-9.654 2.374-4.111 8.101-2.495 11.163-6.605l-.139-.702-2.283-.705.17-.896c2.805-1.032 1.272 1.9 2.974-.342.298-2.869 6.009-5.975 7.873-9.09 1.676-2.8 4.223-4.719.595-7.974-1.714-1.539 1.042-5.961 1.032-8.105l-2.529-.699-.136-.695c1.787-2.44 3.876-4.403 6.01-6.542l-.348-.812c-2.074-.752-3.797-.778-5.991-.982.884-1.695 3.058-2.132 3.52-5.337-.845-1.756-1.143-1.471-3.184-1.914-.312-1.819 2.848-7.001 2.184-7.581-2.48-2.169-8.443-5.988-8.684-9.912 2.211-.626 3.063-.854 5.336-1.084.186-1.53-.647-3.234-1.117-4.672-2.686-8.226-4.98-14.515 3.486-20.087.988-.651 1.955-1.136 2.611-2.156.46-2.678 3.621-22.106 4.046-22.706l1.951.313c1.296-3.916 4.616-12.031 6.666-15.935.134-.256 4.732-3.106 5.383-3.609 1.267-.922.628-3.54.988-4.753 1.118-3.77 7.003-8.369 9.773-11.426 8.109-8.951 14.262-16.919 25.503-21.899.84-.373 7.115-8.919 9.179-9.711 4.16-2.584 9.734-12.747 14.386-15.148 7.03-.187 8.771-6.646 16.339-6.599.9.005 1.353-.768 2.205-1.573 5.156-.49 7.746-1.498 11.98.192-.2-.08 10.018-2.918 10.944-3.222l.722 1.422c1.364.111.675.183 2.045-.665.214-1.27.046-.852.832-1.941 6.669-.201 12.318-5.938 21.751-8.364 1.072.65.91.547 1.549 1.585 3.923.75 9.384 1.847 13.163 2.406 3.957.586 10.221 6.586 11.686 6.385l.496-2.715.469-.258z"/><path fill="#facf8b" d="M313.917 414.195c.46-2.678 3.621-22.106 4.046-22.706l1.951.313c1.296-3.916 4.616-12.031 6.666-15.935.134-.256 4.732-3.106 5.383-3.609 1.267-.922.628-3.54.988-4.753 1.118-3.77 7.003-8.369 9.773-11.426 8.109-8.951 14.262-16.919 25.503-21.899.84-.373 7.115-8.919 9.179-9.711 4.16-2.584 9.734-12.747 14.386-15.148 7.03-.187 8.771-6.646 16.339-6.599.9.005 1.353-.768 2.205-1.573 5.156-.49 7.746-1.498 11.98.192-.2-.08 10.018-2.918 10.944-3.222l.722 1.422c1.364.111.675.183 2.045-.665.214-1.27.046-.852.832-1.941 6.669-.201 12.318-5.938 21.751-8.364 1.072.65.91.547 1.549 1.585 3.923.75 9.384 1.847 13.163 2.406 3.957.586 10.221 6.586 11.686 6.385l.496-2.715.469-.258.573.924c7 5.514 9.684 12.6 11.158 20.752.916 5.064-3.466 20.163-7.168 23.74-6.268 6.056-12.788 13.313-18.706 19.936-5.265 5.894-13.864 11.452-19.472 17.192-10.077 9.344-20.681 18.59-31.822 26.658-5.672 4.107-13.79 7.788-19.827 12.012-4.457 3.118-8.122 5.89-12.511 9.387-3.026 2.413-10.658 2.129-13.966 3.887 0 0-.236 2.138-.226 2.133-1.422.736-9.915 6.888-10.793 7.081-5.478 1.203-15.297 2.38-20.588 2.96-5.904.648-19.455.084-23.484-4.262-1.856-2.002-6.516-6.273-6.618-9.323-.153-4.609.504-10.397 1.394-14.856"/></svg>