<?xml version="1.0" encoding="utf-8" ?><svg xmlns="http://www.w3.org/2000/svg" xmlns:xlink="http://www.w3.org/1999/xlink" width="1024" height="1024" viewBox="0 0 1024 1024"><defs><linearGradient id="gradient_0" gradientUnits="userSpaceOnUse" x1="373.15076" y1="246.85367" x2="638.80792" y2="789.64838"><stop offset="0" stop-color="#FDC69B"/><stop offset="1" stop-color="#EA91BA"/></linearGradient></defs><path fill="url(#gradient_0)" d="M510.27 205.282C513.596 204.945 517.369 204.916 520.735 204.874C593.013 203.988 658.603 234.376 709.487 285.372C774.684 350.714 817.583 457.746 819.356 549.721C819.364 596.158 806.865 645.062 778.791 682.71C736.664 739.203 675.678 779.821 609.076 801.735C577.389 812.162 545.673 819.285 512.375 819.502C487.254 819.907 461.825 819.475 437.226 813.833C388.149 802.578 343.62 782.455 306.235 748.458C245.749 693.898 209.372 617.574 205.084 536.229C201.161 450.638 233.032 375.069 290.681 312.425C326.403 273.607 376.867 240.441 426.343 221.865C450.022 212.975 485.087 206.365 510.27 205.282Z"/><defs><linearGradient id="gradient_1" gradientUnits="userSpaceOnUse" x1="650.78418" y1="706.34015" x2="397.42163" y2="354.79587"><stop offset="0" stop-color="#FB6373"/><stop offset="1" stop-color="#FEA57B"/></linearGradient></defs><path fill="url(#gradient_1)" d="M583.187 287.788C593.803 290.035 599.783 287.135 609.961 288.215C613.404 288.58 621.053 291.817 624.722 293.116C657.192 304.612 685.386 328.381 704.995 356.396C712.219 366.715 719.982 376.301 726.187 387.175C731.62 395.75 734.726 406.129 739.335 414.893C745.887 427.357 747.895 437.235 750.955 450.799C758.484 484.175 759.886 522.223 752.794 556.017C744.765 593.694 728.208 629.029 704.394 659.308C701.74 662.736 695.611 670.907 692.931 673.467C680.95 684.914 663.428 699.359 649.655 708.292C611.317 733.16 565.516 744.446 520.435 748.332C514.722 748.819 509.002 748.295 503.293 748.291C499.975 748.289 495.712 749.775 492.421 749.457C476.406 747.907 460.691 745.556 444.931 742.363C427.623 738.858 411.707 733.245 395.709 725.846C388.836 723.157 382.417 720.524 375.899 717.012C368.992 713.29 363.301 707.966 356.988 703.638C334.156 687.981 315.893 667.253 300.015 644.692C292.346 631.126 284.411 616.929 280.079 601.898C278.931 597.914 279.103 592.81 277.996 589.419C274.066 577.384 276.657 566.993 275.701 554.841C279.62 548.732 278.169 536.299 281.161 530.982C282.303 530.854 283.551 531.01 284.062 530.307C288.171 524.65 289.467 513.955 293.194 509.367C294.422 507.856 302.091 507.331 302.619 503.743C301.747 503.141 301.628 503.078 300.654 502.658L300.723 501.942L302.658 502.218C306.115 498.168 313.126 492.52 313.387 487.735C313.466 486.277 311.902 484.552 310.959 483.405C311.455 481.651 312.694 478.274 312.254 476.725L310.163 475.373C310.46 473.494 314.9 470.924 316.112 468.276C314.744 467.134 312.704 467.157 310.639 466.768C311.197 464.297 312.944 464.574 313.079 461.807C312.587 460.626 312.102 460.368 311.136 459.506C310.192 456.62 311.328 455.035 312.501 452.181C308.5 448.692 306.001 446.828 303.127 442.339C305.159 441.782 307.199 441.249 309.244 440.742C305.117 427.959 301.581 423.189 313.797 414.433C315.194 411.349 315.836 403.63 316.741 399.745C318.37 392.746 323.415 381.635 327.707 375.804C328.393 374.872 331.901 372.538 332.959 371.824C333.034 370.132 333.181 367.502 334.271 366.072C341.267 356.89 350.835 347.106 359.583 339.596C362.703 337.06 366.058 335.929 369.157 333.291C376.391 327.133 383.168 317.475 390.201 311.48C395.57 308.284 402.281 304.356 408.157 302.352C414.83 300.076 427.588 301.528 433.782 299.243C441.444 296.416 450.106 292.24 457.717 288.962C463.466 291.883 469.848 291.501 475.752 293.494C476.605 293.781 482.174 297.677 483.743 298.61C485.588 298.585 485.093 298.492 486.913 296.986C488.85 294.717 489.512 294.151 491.868 292.295C493.48 293.478 494.909 294.878 496.824 294.869C499.421 293.886 500.095 293.115 502.531 293.513C504.627 294.926 505.607 296.437 507.182 298.414L513.51 296.154C514.632 299.569 518.309 315.005 519.169 316.048L519.83 315.882C521.468 310.626 517.901 307.469 522.144 300.751L522.886 300.429C524.737 303.108 523.643 310.683 523.095 313.99C525.109 311.615 527.371 308.602 530.256 307.503C531.697 307.687 531.883 308.132 532.946 309.173C536.458 309.528 537.563 306.821 539.354 308.967L539.573 311.485C542.957 313.944 552.099 305.027 556.877 305.985L557.755 306.821C560.11 305.927 561.808 300.293 563.027 297.872C563.576 297.967 567.158 298.608 567.72 298.39C572.251 296.631 577.173 293.408 581.351 290.847C581.82 290.56 582.961 288.236 583.187 287.788Z"/><path fill="#FACF8C" d="M457.717 288.962C463.466 291.883 469.848 291.501 475.752 293.494C476.605 293.781 482.174 297.677 483.743 298.61C485.588 298.585 485.093 298.492 486.913 296.986C493.346 303.522 497.913 310.42 497.64 320.186C497.192 336.206 489.241 342.18 479.64 352.94C470.967 362.66 463.274 368.708 453.757 377.245C437.204 392.093 421.897 405.905 402.072 416.446C397.18 419.129 392.042 424.284 387.037 427.057C384.874 428.424 377.027 429.02 375.692 430.044C372.194 432.715 368.421 437.993 363.974 439.182C354.781 441.641 344.116 442.858 334.594 442.694C323.39 442.5 318.294 439.253 312.511 429.922C312.482 424.353 312.887 419.961 313.797 414.433C315.194 411.349 315.836 403.63 316.741 399.745C318.37 392.746 323.415 381.635 327.707 375.804C328.393 374.872 331.901 372.538 332.959 371.824C333.034 370.132 333.181 367.502 334.271 366.072C341.267 356.89 350.835 347.106 359.583 339.596C362.703 337.06 366.058 335.929 369.157 333.291C376.391 327.133 383.168 317.475 390.201 311.48C395.57 308.284 402.281 304.356 408.157 302.352C414.83 300.076 427.588 301.528 433.782 299.243C441.444 296.416 450.106 292.24 457.717 288.962Z"/><defs><linearGradient id="gradient_2" gradientUnits="userSpaceOnUse" x1="906.11053" y1="521.57343" x2="623.9458" y2="510.91708"><stop offset="0" stop-color="#F8E3E6"/><stop offset="1" stop-color="#FEFFFF"/></linearGradient></defs><path fill="url(#gradient_2)" d="M642.648 174.062C649.498 173.842 658.697 176.061 665.44 177.884C795.701 213.093 886.545 333.576 904.213 464.143C917.534 560.536 891.561 658.238 832.132 735.29C794.807 784.087 721.341 841.085 659.121 849.332C649.132 850.577 640.872 850.239 631.895 845.335C638.489 843.086 644.97 840.067 651.409 837.387C785.026 781.77 870.778 662.421 872.349 515.999C874.463 408.575 825.79 306.447 741.018 240.432C710.622 216.422 677.675 198.703 641.869 184.502C639.115 183.41 635.289 181.532 635.899 178.258C637.639 175.772 639.808 174.939 642.648 174.062Z"/><defs><linearGradient id="gradient_3" gradientUnits="userSpaceOnUse" x1="114.76858" y1="518.65198" x2="392.61255" y2="514.03198"><stop offset="0" stop-color="#F9E2E4"/><stop offset="1" stop-color="#FEFFFF"/></linearGradient></defs><path fill="url(#gradient_3)" d="M376.797 174.197C379.954 173.882 387.582 173.238 388.134 177.318C387.294 179.227 384.973 181.416 383.158 182.187C321.91 208.194 269.27 239.133 226.151 291.906C168.58 362.367 142.02 455.464 150.715 546.441C161.769 662.103 222.661 753.355 321.461 812.924C333.408 820.003 345.707 826.469 358.311 832.298C367.275 836.385 388.774 844.083 395.055 849.288L395.625 849.766C387.054 855.764 382.239 855.446 372.122 853.729C327.006 846.201 273.61 815.669 238.969 786.438C166.963 725.049 122.404 637.485 115.16 543.14C107.237 447.186 137.771 352.017 200.039 278.584C239.205 232.399 315.15 179.232 376.797 174.197Z"/><path fill="#F9E5E8" d="M212.93 349.027C214.216 348.803 213.754 348.809 215.019 349.048C216.533 352.738 199.185 406.347 197.213 413.734C179.75 478.875 180.269 544.948 196.311 610.276C202.76 636.537 207.881 655.389 224.54 677.686C255.592 719.414 291.044 756.63 334.336 785.791C339.545 789.3 357.824 799.078 357.143 805.069C354.33 809.531 346.108 805.356 342.401 804.001C288.606 779.827 252.672 736.881 220.698 689.166C209.728 672.794 198.029 659.276 189.542 641.057C175.957 611.891 168.162 581.4 165.809 549.325C160.153 483.679 168.671 410.798 205.36 354.373C207.61 350.912 209.096 349.975 212.93 349.027Z"/><path fill="#F9E5E8" d="M813.043 359.402C819.041 362.318 828.612 383.103 831.554 390.277C862.904 466.718 865.312 559.68 834.175 636.529C830.568 645.431 826.278 653.961 820.856 661.854C814.247 671.477 804.813 680.64 798.359 689.989C791.507 699.914 786.356 710.175 778.958 720.198C753.707 754.405 718.427 786.552 678.891 802.951C675.566 804.168 667.05 807.706 664.163 805.281L664.229 804.071C667.581 798.278 693.078 782.222 700.426 776.718C709.192 770.164 717.737 763.318 726.046 756.192C739.98 744.082 752.918 730.872 764.737 716.689C771.538 708.647 778.075 699.202 785.607 691.948C787.451 690.173 794.216 687.953 796.738 686.221C807.17 677.861 810.746 656.868 814.344 644.823C833.582 580.425 840.812 515.306 829.337 448.406C826.449 432.503 822.883 416.731 818.647 401.132C815.826 391.038 809.695 374.491 809.187 363.634C809.11 361.998 811.655 360.295 813.043 359.402Z"/><path fill="#F9E5E8" d="M666.841 220.597C691.791 223.381 732.32 255.754 750.438 273.75C766.097 289.303 783.233 310.169 792.347 330.558C793.24 332.554 795.057 336.849 795.068 339.033C794.169 340.785 794.822 340.026 792.64 341.001C786.162 336.501 777.118 325.239 771.952 318.786C749.24 290.415 723.306 267.653 693.998 246.138C687.561 241.446 681.089 236.804 674.581 232.211C671.576 230.08 664.686 226.212 664.025 222.792C665.113 221.074 664.744 221.617 666.841 220.597Z"/><defs><linearGradient id="gradient_4" gradientUnits="userSpaceOnUse" x1="278.42642" y1="267.3663" x2="293.1976" y2="283.07062"><stop offset="0" stop-color="#FAE1E3"/><stop offset="1" stop-color="#FAF4F4"/></linearGradient></defs><path fill="url(#gradient_4)" d="M353.098 219.065C356.271 218.945 357.665 218.92 358.886 222.106C358.733 223 358.422 224.239 357.581 224.725C348.154 230.17 339.76 237.091 330.824 243.293C306.204 260.383 283.703 279.646 263.373 301.687C251.168 314.919 240.828 328.473 227.835 340.993L224.369 344.715C227.857 328.584 229.896 323.904 240.011 309.541C262.601 277.466 293.046 251.046 326.643 231.043C333.074 227.214 346.05 220.307 353.098 219.065Z"/></svg>