<?xml version="1.0" encoding="utf-8" ?><svg xmlns="http://www.w3.org/2000/svg" xmlns:xlink="http://www.w3.org/1999/xlink" width="1024" height="1024" viewBox="0 0 1024 1024"><defs><linearGradient id="gradient_0" gradientUnits="userSpaceOnUse" x1="355.2457" y1="276.40585" x2="677.55505" y2="758.74359"><stop offset="0" stop-color="#FCC79A"/><stop offset="1" stop-color="#E690BE"/></linearGradient></defs><path fill="url(#gradient_0)" d="M527.901 205.245C532.44 205.247 536.978 205.329 541.514 205.492C590.924 207.5 635.533 225.846 669.256 262.575C682.217 276.873 692.911 293.072 700.968 310.608C735.462 384.662 738.101 492.676 735.078 573.645C733.121 626.061 727.109 671.894 701.257 718.277C691.154 736.642 678.179 753.274 662.823 767.542C615.857 810.515 560.257 822.001 498.375 819.331C446.03 816.301 398.806 799.574 360.655 762.697C316.649 720.159 300.357 672.683 293.035 613.234C289.907 586.387 288.266 559.389 288.119 532.361C287.802 504.873 290.202 474.356 293.99 447.182C302.946 382.934 319.865 322.189 366.362 274.756C410.76 229.465 464.557 205.897 527.901 205.245Z"/><defs><linearGradient id="gradient_1" gradientUnits="userSpaceOnUse" x1="662.66852" y1="671.40161" x2="383.91492" y2="363.02835"><stop offset="0" stop-color="#FB6474"/><stop offset="1" stop-color="#FBA67A"/></linearGradient></defs><path fill="url(#gradient_1)" d="M470.817 283.06C475.737 280.456 481.671 279.007 487.055 277.598C516.356 269.927 551.152 269.663 580.235 278.662C600.962 285.075 621.611 297.581 636.634 313.404C642.002 319.058 646.665 325.442 651.31 331.691C656.985 339.327 662.445 347.063 666.84 355.527C700.544 420.441 702.136 545.709 679.994 614.505C675.678 627.915 670.721 641.679 664.474 654.325C647.041 689.255 618.806 717.63 583.963 735.237C550.24 752.423 498.123 755.877 462.076 744.1C417.032 729.284 379.892 696.885 359.098 654.269C353.488 643.017 345.47 622.651 342.156 610.585C330.032 566.43 328.566 517.572 334.075 472.284C335.14 463.528 339.953 430.558 343.988 423.775C344.467 421.349 344.544 418.865 344.865 416.26C351.84 359.53 384.229 292.126 445.445 279.764C453.751 278.087 463.085 279.69 470.817 283.06Z"/><path fill="#FAD08E" d="M343.988 423.775C344.467 421.349 344.544 418.865 344.865 416.26C351.84 359.53 384.229 292.126 445.445 279.764C453.751 278.087 463.085 279.69 470.817 283.06C477.391 286.61 482.798 291.306 484.916 298.835C486.799 305.525 486.402 323.085 485.303 329.689C484.52 334.397 479.758 348.1 478.002 353.071C475.628 359.79 472.363 371.168 469.446 377.333C466.387 383.798 460.914 393.668 457.057 400.224C440.328 428.329 418.851 455.661 392.436 475.267C388.099 478.486 379.655 481.43 374.544 483.099C360.173 487.795 348.388 475.956 345.192 462.825C342.083 450.048 344.33 436.685 343.988 423.775Z"/></svg>